HIERARCHY
ROOT Hips
{
    OFFSET 0.000000 0.000000 0.000000
    CHANNELS 6 Xposition Yposition Zposition Zrotation Xrotation Yrotation
    JOINT Spine
    {
        OFFSET -0.000000 7.236184 0.000000
        CHANNELS 3 Zrotation Xrotation Yrotation
        JOINT Spine1
        {
            OFFSET -0.000000 20.420147 0.000000
            CHANNELS 3 Zrotation Xrotation Yrotation
            JOINT Neck
            {
                OFFSET -0.000000 20.336288 1.848754
                CHANNELS 3 Zrotation Xrotation Yrotation
                JOINT Head
                {
                    OFFSET -0.000000 12.354461 -1.764923
                    CHANNELS 3 Zrotation Xrotation Yrotation
                    End Site
                    {
                        OFFSET -0.000000 22.061537 0.000000
                    }
                }
            }
            JOINT LeftShoulder
            {
                OFFSET 3.573296 18.396038 -0.314103
                CHANNELS 3 Zrotation Xrotation Yrotation
                JOINT LeftArm
                {
                    OFFSET 10.880760 0.000000 0.000000
                    CHANNELS 3 Zrotation Xrotation Yrotation
                    JOINT LeftForeArm
                    {
                        OFFSET 27.185530 0.000000 0.000000
                        CHANNELS 3 Zrotation Xrotation Yrotation
                        JOINT LeftHand
                        {
                            OFFSET 27.825975 0.000000 0.000000
                            CHANNELS 3 Zrotation Xrotation Yrotation
                            End Site
                            {
                                OFFSET 13.236923 0.000000 0.000000
                            }
                        }
                    }
                }
            }
            JOINT RightShoulder
            {
                OFFSET -3.474926 18.396038 -0.314103
                CHANNELS 3 Zrotation Xrotation Yrotation
                JOINT RightArm
                {
                    OFFSET -10.880760 0.000000 0.000000
                    CHANNELS 3 Zrotation Xrotation Yrotation
                    JOINT RightForeArm
                    {
                        OFFSET -27.185530 0.000000 0.000000
                        CHANNELS 3 Zrotation Xrotation Yrotation
                        JOINT RightHand
                        {
                            OFFSET -27.825975 0.000000 0.000000
                            CHANNELS 3 Zrotation Xrotation Yrotation
                            End Site
                            {
                                OFFSET -13.236923 0.000000 0.000000
                            }
                        }
                    }
                }
            }
        }
    }
    JOINT LeftUpLeg
    {
        OFFSET 8.824615 0.000000 0.000000
        CHANNELS 3 Zrotation Xrotation Yrotation
        JOINT LeftLeg
        {
            OFFSET -0.000000 -35.111282 0.000000
            CHANNELS 3 Zrotation Xrotation Yrotation
            JOINT LeftFoot
            {
                OFFSET -0.000000 -42.324711 0.000000
                CHANNELS 3 Zrotation Xrotation Yrotation
                JOINT LeftToeBase
                {
                    OFFSET -0.000000 -5.735999 13.236923
                    CHANNELS 3 Zrotation Xrotation Yrotation
                    End Site
                    {
                        OFFSET -0.000000 0.000000 3.529846
                    }
                }
            }
        }
    }
    JOINT RightUpLeg
    {
        OFFSET -8.824615 0.000000 0.000000
        CHANNELS 3 Zrotation Xrotation Yrotation
        JOINT RightLeg
        {
            OFFSET -0.000000 -35.111282 0.000000
            CHANNELS 3 Zrotation Xrotation Yrotation
            JOINT RightFoot
            {
                OFFSET -0.000000 -42.324711 0.000000
                CHANNELS 3 Zrotation Xrotation Yrotation
                JOINT RightToeBase
                {
                    OFFSET -0.000000 -5.735999 13.236923
                    CHANNELS 3 Zrotation Xrotation Yrotation
                    End Site
                    {
                        OFFSET -0.000000 0.000000 3.529846
                    }
                }
            }
        }
    }
}
MOTION
Frames:    8
Frame Time:    0.008333
-19.720169    85.038864    97.079895    -1.438419    -7.776382    176.712402    -0.498350    -16.548426    0.388296    3.138720    11.681822    0.139732    1.953975    7.614268    -1.941205    6.479522    -14.371415    -0.462814    -2.333917    19.572554    -1.646797    -48.772377    41.081791    -35.376667    1.379965    -5.856913    -16.163729    18.842583    -5.339108    1.954425    11.763891    20.232721    -7.580225    34.069328    41.320225    40.259209    -1.729064    -8.417435    17.756863    -10.966795    -7.628063    -5.486194    4.475242    -9.508969    -4.756127    1.455662    13.912283    0.161373    -3.416354    -10.700846    -9.635837    -0.539975    0.074585    0.598463    -5.038889    -5.679610    0.351635    2.384157    4.484671    -0.517658    0.518931    -4.855618    -11.915135    -1.262688    0.672944    1.364435    
-19.932373    85.054169    97.122032    -1.524179    -7.910401    176.249649    -0.537171    -16.518457    0.358926    3.168544    11.633786    0.114168    2.072188    7.493911    -1.862228    6.439362    -14.339239    -0.404749    -2.220559    19.524965    -1.731892    -48.711956    41.228256    -35.436546    1.330697    -5.782871    -16.233400    18.732164    -5.261432    2.025218    11.809602    20.229439    -7.603360    34.166840    41.183723    40.230274    -1.813988    -8.614966    17.677809    -11.463854    -7.802218    -5.366449    4.367397    -9.543955    -4.267467    1.385541    13.792570    0.141315    -3.319978    -10.647663    -9.541027    -0.516838    0.104902    0.572789    -5.175315    -6.198080    0.343051    2.320164    4.928196    -0.214702    0.598295    -4.827963    -11.901085    -1.250414    0.553204    1.351391    
-20.144375    85.069260    97.164413    -1.613821    -8.043754    175.782944    -0.579410    -16.490076    0.329704    3.201194    11.587824    0.088733    2.193140    7.378214    -1.781012    6.391878    -14.312301    -0.346354    -2.108235    19.477579    -1.818159    -48.642467    41.376530    -35.500378    1.284695    -5.710901    -16.316399    18.619946    -5.185491    2.095746    11.854581    20.225389    -7.623759    34.260048    41.047527    40.200397    -1.897895    -8.821784    17.608398    -11.951993    -7.986001    -5.258885    4.257056    -9.579027    -3.784604    1.314741    13.671657    0.134152    -3.225741    -10.595440    -9.450720    -0.493248    0.134435    0.546616    -5.309551    -6.722591    0.338059    2.253947    5.376713    0.089670    0.674750    -4.799736    -11.892443    -1.238359    0.431059    1.338585    
-20.354240    85.083878    97.207115    -1.708131    -8.175653    175.312653    -0.624458    -16.462900    0.301212    3.236296    11.543827    0.064341    2.314919    7.264863    -1.696992    6.334527    -14.287371    -0.287833    -1.997588    19.430285    -1.905057    -48.563992    41.527241    -35.571064    1.245942    -5.640793    -16.416105    18.512516    -5.111628    2.158153    11.896599    20.219679    -7.639785    34.349056    40.914124    40.170429    -1.977762    -9.040103    17.550884    -12.429276    -8.181367    -5.168417    4.143620    -9.612855    -3.316896    1.243524    13.549391    0.151626    -3.135988    -10.545128    -9.368552    -0.469002    0.161599    0.519721    -5.442026    -7.253062    0.343847    2.189320    5.831076    0.384994    0.744981    -4.770359    -11.890199    -1.227054    0.304213    1.326594    
-20.558786    85.097610    97.249763    -1.806929    -8.304323    174.842224    -0.671380    -16.437141    0.274444    3.273517    11.502385    0.041718    2.435085    7.153823    -1.610177    6.265376    -14.263580    -0.229553    -1.890038    19.383522    -1.991394    -48.477394    41.679340    -35.650547    1.217791    -5.572401    -16.533922    18.415783    -5.039997    2.206621    11.933114    20.213161    -7.650003    34.433624    40.785183    40.142059    -2.050831    -9.269485    17.507532    -12.888049    -8.387810    -5.100129    4.027494    -9.643917    -2.874784    1.172802    13.426281    0.202555    -3.053350    -10.497433    -9.297997    -0.444297    0.185303    0.492323    -5.572034    -7.785383    0.365163    2.130070    6.289032    0.661203    0.805615    -4.739589    -11.895342    -1.217369    0.171726    1.316363    
-20.766758    85.110847    97.294525    -1.915124    -8.435588    174.347855    -0.721788    -16.411106    0.248691    3.315067    11.461292    0.020147    2.557886    7.038068    -1.515814    6.180059    -14.237995    -0.168248    -1.780788    19.334776    -2.080933    -48.377834    41.840897    -35.745285    1.201220    -5.500892    -16.678106    18.331919    -4.965323    2.241457    11.964499    20.207451    -7.653544    34.517689    40.653168    40.115456    -2.118754    -9.522855    17.478594    -13.343834    -8.616894    -5.054940    3.903360    -9.673138    -2.441725    1.099040    13.296082    0.294637    -2.974677    -10.450315    -9.235922    -0.418355    0.206283    0.463560    -5.705044    -8.346820    0.404748    2.075638    6.775328    0.925928    0.856992    -4.705287    -11.908378    -1.209722    0.024246    1.308358    
-20.970770    85.122871    97.340088    -2.029822    -8.564781    173.842758    -0.773266    -16.385427    0.225409    3.359080    11.422334    0.000675    2.679156    6.919762    -1.415739    6.079583    -14.209908    -0.105249    -1.672430    19.285082    -2.170741    -48.268654    42.006977    -35.854748    1.198877    -5.425518    -16.846434    18.272106    -4.886695    2.259816    11.989249    20.204763    -7.648336    34.599159    40.519833    40.092129    -2.177799    -9.794710    17.467953    -13.772981    -8.863720    -5.038146    3.774907    -9.698885    -2.034586    1.024911    13.162741    0.428956    -2.903330    -10.405556    -9.183953    -0.392299    0.223068    0.434676    -5.836506    -8.922129    0.462807    2.030800    7.278430    1.165833    0.894235    -4.667748    -11.930620    -1.205706    -0.136618    1.304302    
-21.172424    85.133606    97.387421    -2.150537    -8.695453    173.319214    -0.823307    -16.361366    0.204432    3.404881    11.384933    -0.016484    2.800562    6.796523    -1.307858    5.962660    -14.177918    -0.039050    -1.563004    19.233780    -2.261492    -48.147278    42.179981    -35.982624    1.211777    -5.342891    -17.041746    18.241852    -4.800126    2.262793    12.008876    20.206749    -7.633660    34.678303    40.381222    40.072815    -2.227553    -10.089840    17.477484    -14.170907    -9.132829    -5.050636    3.643864    -9.724293    -1.648020    0.949090    13.025930    0.604379    -2.837981    -10.362960    -9.138433    -0.366553    0.236077    0.406139    -5.964343    -9.522339    0.539021    1.996520    7.807175    1.379902    0.915653    -4.625892    -11.963462    -1.206269    -0.315699    1.305233    
